# xmcd
# 
# Track frame offsets:
#     150
#     18770
#     34229
#     51462
#     67065
#     83377
#     100402
#     116014
#     132872
#     151818
# 
# Disc length: 2277
# 
# Revision: 0
# Processed by: cddbd v1.5.2PL0 Copyright (c) Steve Scherf et al.
# Submitted via: fre:ac v1.0.27
# 
DISCID=7c08e30a
DTITLE=Gin Lee - Gin Lee
DYEAR=2012
DGENRE=
TTITLE0=Falling
TTITLE1=今天終於一人回家
TTITLE2=好姊妹
TTITLE3=前科
TTITLE4=GT
TTITLE5=Killer
TTITLE6=1st Date
TTITLE7=換季生活
TTITLE8=默哀
TTITLE9=認真先輸了
EXTD=
EXTT0=
EXTT1=
EXTT2=
EXTT3=
EXTT4=
EXTT5=
EXTT6=
EXTT7=
EXTT8=
EXTT9=
PLAYORDER=
